<svg width="1000" height="1000" viewBox="0 0 1000 1000" fill="none" xmlns="http://www.w3.org/2000/svg">
<g clip-path="url(#clip0_739_272)">
<path d="M500 1000C776.142 1000 1000 776.142 1000 500C1000 223.858 776.142 0 500 0C223.858 0 0 223.858 0 500C0 776.142 223.858 1000 500 1000Z" fill="white"/>
<path d="M641.343 640.681C719.041 562.983 719.041 437.01 641.343 359.312C563.645 281.614 437.672 281.614 359.974 359.312C282.276 437.01 282.276 562.984 359.974 640.681C437.672 718.379 563.645 718.379 641.343 640.681Z" fill="#191919"/>
<path d="M499.931 681.599C499.931 681.599 485.609 586.839 485.609 581.02C485.609 575.2 492.025 570.488 499.931 570.488C507.837 570.488 514.253 575.2 514.253 581.02C514.253 586.839 499.931 681.599 499.931 681.599Z" fill="url(#paint0_linear_739_272)"/>
<path d="M744.469 377.08V437.546L842.564 500.227L744.469 562.951V623.417L922.405 510.277V490.164L744.469 377.08Z" fill="url(#paint1_linear_739_272)"/>
<path d="M77.6016 508.545L255.538 621.629V561.162L157.443 498.495L255.538 435.772V375.305L77.6016 488.446V508.545Z" fill="url(#paint2_linear_739_272)"/>
<path d="M536.806 494.152C537.998 485.025 538.779 475.388 539.034 465.381C540.511 408.676 505.025 361.707 504.656 361.225C504.656 361.225 466.361 406.461 464.87 463.45C464.615 473.457 464.87 483.123 465.594 492.293L442.43 512.008L463.025 574.633L470.392 524.357C473.004 535.528 476.439 545.052 480.498 552.291L480.2 574.306C480.243 568.515 488.83 563.817 499.405 563.817C509.979 563.817 517.672 568.046 518.524 573.426L518.808 553.285C523.236 546.273 527.154 536.947 530.362 525.919L535.089 576.506L558.92 515.032L536.82 494.138L536.806 494.152ZM465.992 507.963L456.127 516.99L462.301 554.179L449.427 515.003L466.176 500.738L465.992 507.949V507.963ZM501.917 465.991C496.452 465.849 492.137 461.307 492.279 455.842C492.421 450.378 496.963 446.077 502.428 446.205C507.893 446.347 512.208 450.889 512.066 456.353C511.924 461.818 507.382 466.133 501.917 465.991ZM502.612 439.335C494.962 439.136 488.929 432.763 489.128 425.127C489.327 417.476 495.686 411.429 503.336 411.642C510.987 411.841 517.034 418.2 516.835 425.85C516.636 433.501 510.263 439.548 502.612 439.349V439.335ZM536.778 509.822L536.962 502.612L552.945 517.729L538.041 556.18L546.146 519.361L536.778 509.822Z" fill="white"/>
</g>
<defs>
<linearGradient id="paint0_linear_739_272" x1="485.609" y1="626.043" x2="514.253" y2="626.043" gradientUnits="userSpaceOnUse">
<stop stop-color="#FFF33B"/>
<stop offset="0.04" stop-color="#FEE62D"/>
<stop offset="0.12" stop-color="#FDD51B"/>
<stop offset="0.2" stop-color="#FDCA0F"/>
<stop offset="0.28" stop-color="#FDC70C"/>
<stop offset="0.67" stop-color="#F3903F"/>
<stop offset="0.89" stop-color="#ED683C"/>
<stop offset="1" stop-color="#E93E3A"/>
</linearGradient>
<linearGradient id="paint1_linear_739_272" x1="744.469" y1="500.241" x2="922.405" y2="500.241" gradientUnits="userSpaceOnUse">
<stop stop-color="#FFF33B"/>
<stop offset="0.04" stop-color="#FEE62D"/>
<stop offset="0.12" stop-color="#FDD51B"/>
<stop offset="0.2" stop-color="#FDCA0F"/>
<stop offset="0.28" stop-color="#FDC70C"/>
<stop offset="0.67" stop-color="#F3903F"/>
<stop offset="0.89" stop-color="#ED683C"/>
<stop offset="1" stop-color="#E93E3A"/>
</linearGradient>
<linearGradient id="paint2_linear_739_272" x1="77.6016" y1="498.467" x2="255.538" y2="498.467" gradientUnits="userSpaceOnUse">
<stop stop-color="#FFF33B"/>
<stop offset="0.04" stop-color="#FEE62D"/>
<stop offset="0.12" stop-color="#FDD51B"/>
<stop offset="0.2" stop-color="#FDCA0F"/>
<stop offset="0.28" stop-color="#FDC70C"/>
<stop offset="0.67" stop-color="#F3903F"/>
<stop offset="0.89" stop-color="#ED683C"/>
<stop offset="1" stop-color="#E93E3A"/>
</linearGradient>
<clipPath id="clip0_739_272">
<rect width="1000" height="1000" fill="white"/>
</clipPath>
</defs>
</svg>
