<svg width="250" height="122" viewBox="0 0 250 122" fill="none" xmlns="http://www.w3.org/2000/svg">
<g clip-path="url(#clip0_739_112)">
<path d="M1.75565 83.7639C2.92608 81.6442 4.55602 79.9926 6.64979 78.8091C8.74356 77.6257 11.1148 77.0361 13.7721 77.0361C17.0233 77.0361 19.8063 77.8944 22.1212 79.6111C24.436 81.3277 25.9836 83.6686 26.7639 86.6337H19.4292C18.883 85.4893 18.1114 84.6179 17.1056 84.0197C16.1043 83.4215 14.9642 83.1224 13.6897 83.1224C11.635 83.1224 9.97035 83.8376 8.69588 85.2682C7.42141 86.6987 6.78417 88.6104 6.78417 91.0033C6.78417 93.3962 7.42141 95.3079 8.69588 96.7384C9.97035 98.1689 11.635 98.8842 13.6897 98.8842C14.9642 98.8842 16.1043 98.5851 17.1056 97.9869C18.107 97.3886 18.883 96.5173 19.4292 95.3729H26.7639C25.9836 98.338 24.436 100.675 22.1212 102.378C19.8063 104.082 17.0233 104.936 13.7721 104.936C11.1191 104.936 8.74356 104.346 6.64979 103.158C4.55602 101.975 2.92175 100.332 1.75565 98.2253C0.585216 96.1185 0 93.7126 0 91.0076C0 88.3026 0.585216 85.8924 1.75565 83.7726V83.7639Z" fill="white"/>
<path d="M36.7318 103.211C34.586 102.014 32.8824 100.341 31.6209 98.195C30.3595 96.0492 29.7266 93.639 29.7266 90.96C29.7266 88.281 30.3551 85.8751 31.6209 83.7424C32.8824 81.6096 34.586 79.945 36.7318 78.7485C38.8776 77.5521 41.2358 76.9539 43.8151 76.9539C46.3944 76.9539 48.7483 77.5521 50.894 78.7485C53.0398 79.945 54.7305 81.6096 55.9659 83.7424C57.2014 85.8751 57.8169 88.281 57.8169 90.96C57.8169 93.639 57.1927 96.0536 55.9442 98.195C54.6958 100.341 53.0052 102.014 50.8724 103.211C48.7396 104.407 46.3857 105.005 43.8108 105.005C41.2358 105.005 38.8776 104.407 36.7275 103.211H36.7318ZM49.0647 96.7342C50.3782 95.2776 51.0328 93.3529 51.0328 90.96C51.0328 88.5671 50.3739 86.6078 49.0647 85.1686C47.7512 83.725 45.9999 83.0011 43.8151 83.0011C41.6303 83.0011 39.84 83.7164 38.5265 85.1469C37.213 86.5774 36.5584 88.5151 36.5584 90.96C36.5584 93.4049 37.213 95.3123 38.5265 96.7558C39.84 98.1994 41.5999 98.919 43.8151 98.919C46.0303 98.919 47.7469 98.1907 49.0647 96.7342Z" fill="white"/>
<path d="M79.3574 79.0607C81.5162 80.2051 83.1851 81.8134 84.3685 83.8811C85.552 85.9489 86.1459 88.3375 86.1459 91.0425C86.1459 93.7474 85.552 96.1013 84.3685 98.1821C83.1851 100.263 81.5075 101.875 79.3357 103.02C77.1639 104.164 74.6453 104.737 71.7842 104.737H61.5234V77.3484H71.7842C74.6713 77.3484 77.1942 77.9206 79.353 79.065L79.3574 79.0607ZM77.2506 96.8903C78.6551 95.5118 79.3574 93.561 79.3574 91.0381C79.3574 88.5152 78.6551 86.5515 77.2506 85.1469C75.8461 83.7424 73.8823 83.0402 71.3594 83.0402H68.1992V98.958H71.3594C73.8823 98.958 75.8461 98.2688 77.2506 96.8903Z" fill="white"/>
<path d="M96.5621 82.689V88.229H105.496V93.3789H96.5621V99.3871H106.667V104.732H89.8906V77.344H106.667V82.689H96.5621Z" fill="white"/>
<path d="M139.675 93.0495C140.637 94.285 141.118 95.6982 141.118 97.2848C141.118 99.5736 140.316 101.39 138.716 102.729C137.117 104.069 134.884 104.737 132.023 104.737H119.266V77.3484H131.594C134.377 77.3484 136.553 77.9856 138.127 79.2601C139.701 80.5346 140.489 82.2642 140.489 84.449C140.489 86.0616 140.069 87.4011 139.224 88.4675C138.378 89.5339 137.256 90.2752 135.847 90.6913C137.433 91.0294 138.708 91.8184 139.67 93.0495H139.675ZM125.941 88.4241H130.311C131.403 88.4241 132.244 88.1857 132.83 87.7002C133.415 87.219 133.705 86.5124 133.705 85.5761C133.705 84.6398 133.415 83.9245 132.83 83.4303C132.244 82.9361 131.403 82.689 130.311 82.689H125.941V88.4241ZM133.45 98.5896C134.061 98.0824 134.369 97.3498 134.369 96.3874C134.369 95.4251 134.048 94.6708 133.411 94.1246C132.773 93.5784 131.893 93.3053 130.775 93.3053H125.937V99.3525H130.853C131.971 99.3525 132.838 99.1011 133.45 98.5939V98.5896Z" fill="white"/>
<path d="M150.849 103.211C148.703 102.014 147 100.341 145.738 98.195C144.477 96.0492 143.844 93.639 143.844 90.96C143.844 88.281 144.472 85.8751 145.738 83.7424C147 81.6096 148.703 79.945 150.849 78.7485C152.995 77.5521 155.353 76.9539 157.932 76.9539C160.512 76.9539 162.865 77.5521 165.011 78.7485C167.157 79.945 168.848 81.6096 170.083 83.7424C171.319 85.8751 171.934 88.281 171.934 90.96C171.934 93.639 171.31 96.0536 170.061 98.195C168.813 100.341 167.122 102.014 164.99 103.211C162.857 104.407 160.503 105.005 157.928 105.005C155.353 105.005 152.995 104.407 150.845 103.211H150.849ZM163.178 96.7342C164.491 95.2776 165.146 93.3529 165.146 90.96C165.146 88.5671 164.487 86.6078 163.178 85.1686C161.864 83.725 160.113 83.0011 157.928 83.0011C155.743 83.0011 153.953 83.7164 152.639 85.1469C151.326 86.5774 150.671 88.5151 150.671 90.96C150.671 93.4049 151.326 95.3123 152.639 96.7558C153.953 98.1994 155.713 98.919 157.928 98.919C160.143 98.919 161.86 98.1907 163.178 96.7342Z" fill="white"/>
<path d="M181.513 103.211C179.367 102.014 177.664 100.341 176.402 98.195C175.141 96.0492 174.508 93.639 174.508 90.96C174.508 88.281 175.136 85.8751 176.402 83.7424C177.664 81.6096 179.367 79.945 181.513 78.7485C183.659 77.5521 186.017 76.9539 188.596 76.9539C191.176 76.9539 193.53 77.5521 195.675 78.7485C197.821 79.945 199.512 81.6096 200.747 83.7424C201.983 85.8751 202.598 88.281 202.598 90.96C202.598 93.639 201.974 96.0536 200.725 98.195C199.477 100.341 197.786 102.014 195.654 103.211C193.521 104.407 191.167 105.005 188.592 105.005C186.017 105.005 183.659 104.407 181.509 103.211H181.513ZM193.842 96.7342C195.155 95.2776 195.81 93.3529 195.81 90.96C195.81 88.5671 195.151 86.6078 193.842 85.1686C192.528 83.725 190.777 83.0011 188.592 83.0011C186.407 83.0011 184.617 83.7164 183.303 85.1469C181.99 86.5774 181.335 88.5151 181.335 90.96C181.335 93.4049 181.99 95.3123 183.303 96.7558C184.617 98.1994 186.377 98.919 188.592 98.919C190.807 98.919 192.524 98.1907 193.842 96.7342Z" fill="white"/>
<path d="M210.837 104.03C209.251 103.38 207.98 102.417 207.031 101.143C206.082 99.8683 205.579 98.3337 205.531 96.539H212.632C212.736 97.5534 213.087 98.3294 213.685 98.8582C214.283 99.3914 215.064 99.6559 216.026 99.6559C216.988 99.6559 217.795 99.4304 218.367 98.9753C218.939 98.5201 219.225 97.8915 219.225 97.0809C219.225 96.4046 218.996 95.8454 218.545 95.4033C218.09 94.9611 217.53 94.597 216.867 94.3109C216.204 94.0248 215.259 93.6997 214.041 93.3355C212.272 92.7893 210.829 92.2431 209.71 91.6969C208.592 91.1507 207.629 90.3444 206.823 89.278C206.017 88.2116 205.614 86.8201 205.614 85.1035C205.614 82.5545 206.537 80.5605 208.384 79.1169C210.23 77.6734 212.636 76.9495 215.601 76.9495C218.566 76.9495 221.05 77.6734 222.897 79.1169C224.744 80.5605 225.732 82.5675 225.862 85.1425H218.644C218.592 84.2582 218.267 83.5602 217.669 83.0574C217.071 82.5502 216.304 82.2988 215.367 82.2988C214.561 82.2988 213.911 82.5155 213.416 82.9403C212.922 83.3695 212.675 83.9894 212.675 84.7914C212.675 85.6757 213.091 86.3649 213.924 86.8591C214.756 87.3533 216.056 87.8865 217.825 88.4587C219.594 89.0569 221.029 89.6292 222.138 90.1754C223.244 90.7216 224.197 91.5148 225.008 92.5552C225.814 93.5956 226.218 94.9351 226.218 96.5737C226.218 98.2123 225.819 99.5518 225.025 100.826C224.232 102.101 223.079 103.115 221.575 103.869C220.066 104.624 218.285 105.001 216.23 105.001C214.175 105.001 212.432 104.676 210.846 104.025L210.837 104.03Z" fill="white"/>
<path d="M249.997 77.344V82.689H242.741V104.732H236.069V82.689H228.812V77.344H249.997Z" fill="white"/>
<path d="M128.35 71.4435C148.027 69.4968 162.4 51.9674 160.453 32.2904C158.507 12.6134 140.977 -1.75979 121.3 0.186892C101.623 2.13357 87.25 19.663 89.1967 39.34C91.1433 59.0169 108.673 73.3901 128.35 71.4435Z" fill="white"/>
<path d="M124.696 68.479C124.696 68.479 122.117 51.4254 122.117 50.3807C122.117 49.336 123.27 48.4863 124.696 48.4863C126.123 48.4863 127.276 49.336 127.276 50.3807C127.276 51.4254 124.696 68.479 124.696 68.479Z" fill="url(#paint0_linear_739_112)"/>
<path d="M168.695 13.6812V24.5618L186.347 35.8413L168.695 47.1295V58.0102L200.713 37.649V34.0337L168.695 13.6812Z" fill="url(#paint1_linear_739_112)"/>
<path d="M48.6953 37.341L80.7131 57.6892V46.8085L63.0613 35.529L80.7131 24.2452V13.3645L48.6953 33.7214V37.341Z" fill="url(#paint2_linear_739_112)"/>
<path d="M51.1983 120.104H54.9827V120.966H50.1406V112.981H51.1983V120.108V120.104Z" fill="white"/>
<path d="M61.8252 117.273H58.3659V120.104H62.3887V120.966H57.3125V112.981H62.3324V113.844H58.3659V116.415H61.8252V117.277V117.273Z" fill="white"/>
<path d="M69.2236 118.873H65.8771L65.1271 120.962H64.0391L67.0909 112.977H68.0142L71.0703 120.962H69.9909L69.228 118.873H69.2236ZM66.1935 118.014H68.9072L67.546 114.278L66.1892 118.014H66.1935Z" fill="white"/>
<path d="M76.2004 117.732H74.3234V120.962H73.2656V112.977H75.9099C76.8116 112.977 77.5009 113.181 77.9864 113.593C78.4719 114 78.7146 114.598 78.7146 115.383C78.7146 115.881 78.5803 116.315 78.3115 116.683C78.0427 117.052 77.6699 117.329 77.1887 117.511L79.0658 120.901V120.966H77.9344L76.2004 117.737V117.732ZM74.3234 116.87H75.9403C76.4648 116.87 76.881 116.735 77.1887 116.462C77.4965 116.189 77.6526 115.829 77.6526 115.374C77.6526 114.88 77.5052 114.499 77.2104 114.239C76.9156 113.974 76.4908 113.84 75.9359 113.835H74.3234V116.87Z" fill="white"/>
<path d="M87.4508 120.962H86.393L82.3702 114.806V120.962H81.3125V112.977H82.3702L86.4017 119.159V112.977H87.4508V120.962Z" fill="white"/>
<path d="M108.026 118.43C107.927 119.276 107.614 119.926 107.09 120.385C106.565 120.845 105.867 121.075 104.996 121.075C104.051 121.075 103.297 120.737 102.729 120.06C102.161 119.384 101.875 118.478 101.875 117.347V116.579C101.875 115.838 102.009 115.184 102.274 114.62C102.538 114.056 102.915 113.623 103.401 113.324C103.886 113.02 104.45 112.873 105.092 112.873C105.941 112.873 106.622 113.111 107.133 113.584C107.645 114.056 107.944 114.711 108.026 115.552H106.969C106.878 114.915 106.678 114.451 106.375 114.165C106.071 113.879 105.642 113.736 105.096 113.736C104.424 113.736 103.895 113.983 103.514 114.481C103.132 114.98 102.941 115.686 102.941 116.605V117.381C102.941 118.248 103.123 118.938 103.483 119.453C103.847 119.965 104.35 120.221 105.005 120.221C105.59 120.221 106.041 120.086 106.353 119.822C106.665 119.558 106.873 119.094 106.977 118.435H108.035L108.026 118.43Z" fill="white"/>
<path d="M116.737 117.23C116.737 118.014 116.607 118.695 116.342 119.28C116.078 119.865 115.705 120.307 115.224 120.615C114.743 120.923 114.179 121.075 113.533 121.075C112.887 121.075 112.346 120.919 111.86 120.611C111.375 120.303 110.997 119.861 110.729 119.289C110.46 118.716 110.321 118.053 110.312 117.299V116.722C110.312 115.955 110.447 115.275 110.711 114.689C110.98 114.1 111.357 113.649 111.843 113.337C112.328 113.025 112.887 112.869 113.52 112.869C114.153 112.869 114.725 113.025 115.211 113.332C115.701 113.64 116.074 114.091 116.338 114.676C116.602 115.262 116.733 115.946 116.733 116.727V117.23H116.737ZM115.692 116.714C115.692 115.769 115.501 115.04 115.12 114.533C114.738 114.026 114.205 113.775 113.525 113.775C112.844 113.775 112.337 114.026 111.951 114.533C111.57 115.04 111.37 115.743 111.362 116.644V117.23C111.362 118.149 111.552 118.868 111.942 119.393C112.328 119.917 112.861 120.182 113.538 120.182C114.214 120.182 114.743 119.935 115.116 119.44C115.488 118.946 115.679 118.235 115.692 117.308V116.714Z" fill="white"/>
<path d="M119.442 120.962V112.977H121.696C122.39 112.977 123.005 113.129 123.538 113.437C124.072 113.744 124.483 114.182 124.774 114.746C125.064 115.314 125.212 115.964 125.216 116.696V117.208C125.216 117.962 125.069 118.621 124.778 119.189C124.488 119.757 124.072 120.19 123.534 120.494C122.996 120.797 122.368 120.953 121.648 120.962H119.438H119.442ZM120.495 113.84V120.104H121.605C122.416 120.104 123.048 119.852 123.499 119.345C123.95 118.838 124.176 118.123 124.176 117.186V116.718C124.176 115.812 123.963 115.106 123.538 114.603C123.114 114.1 122.507 113.844 121.726 113.835H120.5L120.495 113.84Z" fill="white"/>
<path d="M132.442 117.273H128.983V120.104H133.006V120.966H127.93V112.981H132.95V113.844H128.983V116.415H132.442V117.277V117.273Z" fill="white"/>
<path d="M148.28 120.962H147.227V112.977H148.28V120.962Z" fill="white"/>
<path d="M157.466 120.962H156.409L152.386 114.806V120.962H151.328V112.977H152.386L156.417 119.159V112.977H157.466V120.962Z" fill="white"/>
<path d="M166.599 120.962H165.541L161.519 114.806V120.962H160.461V112.977H161.519L165.55 119.159V112.977H166.599V120.962Z" fill="white"/>
<path d="M175.745 117.23C175.745 118.014 175.615 118.695 175.35 119.28C175.086 119.865 174.713 120.307 174.232 120.615C173.751 120.923 173.187 121.075 172.541 121.075C171.895 121.075 171.353 120.919 170.868 120.611C170.382 120.303 170.005 119.861 169.736 119.289C169.468 118.716 169.329 118.053 169.32 117.299V116.722C169.32 115.955 169.455 115.275 169.719 114.689C169.988 114.1 170.365 113.649 170.851 113.337C171.336 113.025 171.895 112.869 172.528 112.869C173.161 112.869 173.733 113.025 174.219 113.332C174.709 113.64 175.081 114.091 175.346 114.676C175.61 115.262 175.74 115.946 175.74 116.727V117.23H175.745ZM174.696 116.714C174.696 115.769 174.505 115.04 174.123 114.533C173.742 114.026 173.209 113.775 172.528 113.775C171.848 113.775 171.34 114.026 170.955 114.533C170.573 115.04 170.374 115.743 170.365 116.644V117.23C170.365 118.149 170.556 118.868 170.946 119.393C171.332 119.917 171.865 120.182 172.541 120.182C173.217 120.182 173.746 119.935 174.119 119.44C174.492 118.946 174.683 118.235 174.696 117.308V116.714Z" fill="white"/>
<path d="M180.971 119.566L183.251 112.977H184.404L181.443 120.962H180.511L177.555 112.977H178.699L180.971 119.566Z" fill="white"/>
<path d="M190.591 118.873H187.244L186.494 120.962H185.406L188.458 112.977H189.381L192.438 120.962H191.358L190.595 118.873H190.591ZM187.565 118.014H190.279L188.918 114.278L187.561 118.014H187.565Z" fill="white"/>
<path d="M199.443 113.84H196.877V120.966H195.828V113.84H193.266V112.977H199.443V113.84Z" fill="white"/>
<path d="M206.27 117.273H202.811V120.104H206.834V120.966H201.758V112.981H206.778V113.844H202.811V116.415H206.27V117.277V117.273Z" fill="white"/>
<path d="M44.6185 118.634C45.6072 118.634 46.4088 117.833 46.4088 116.844C46.4088 115.855 45.6072 115.053 44.6185 115.053C43.6297 115.053 42.8281 115.855 42.8281 116.844C42.8281 117.833 43.6297 118.634 44.6185 118.634Z" fill="white"/>
<path d="M97.4934 118.634C98.4822 118.634 99.2838 117.833 99.2838 116.844C99.2838 115.855 98.4822 115.053 97.4934 115.053C96.5047 115.053 95.7031 115.855 95.7031 116.844C95.7031 117.833 96.5047 118.634 97.4934 118.634Z" fill="white"/>
<path d="M142.572 118.634C143.56 118.634 144.362 117.833 144.362 116.844C144.362 115.855 143.56 115.053 142.572 115.053C141.583 115.053 140.781 115.855 140.781 116.844C140.781 117.833 141.583 118.634 142.572 118.634Z" fill="white"/>
<path d="M131.324 34.7488C131.54 33.1059 131.679 31.3719 131.727 29.5729C131.996 19.3685 125.606 10.9154 125.541 10.833C125.541 10.833 118.648 18.974 118.38 29.2305C118.332 31.0295 118.38 32.7721 118.51 34.4194L114.344 37.9654L118.05 49.2362L119.377 40.1892C119.849 42.2006 120.465 43.9129 121.193 45.2134L121.137 49.1755C121.145 48.1308 122.689 47.2898 124.592 47.2898C126.495 47.2898 127.877 48.0484 128.033 49.0194L128.085 45.3954C128.883 44.134 129.59 42.4564 130.166 40.471L131.016 49.5743L135.303 38.5116L131.328 34.7532L131.324 34.7488ZM118.583 37.2328L116.81 38.8584L117.92 45.5515L115.601 38.5029L118.614 35.9366L118.579 37.2328H118.583ZM125.047 29.6813C124.063 29.6553 123.287 28.836 123.313 27.8563C123.339 26.8723 124.158 26.0963 125.138 26.1223C126.122 26.1483 126.898 26.9676 126.872 27.9473C126.846 28.9314 126.026 29.7073 125.047 29.6813ZM125.172 24.8869C123.794 24.8522 122.71 23.7034 122.745 22.3293C122.78 20.9507 123.924 19.867 125.302 19.9017C126.681 19.9364 127.765 21.0808 127.73 22.4593C127.695 23.8378 126.547 24.9215 125.172 24.8869ZM131.319 37.5665L131.354 36.2704L134.228 38.9884L131.545 45.907L133.006 39.2832L131.319 37.5665Z" fill="#191919"/>
</g>
<defs>
<linearGradient id="paint0_linear_739_112" x1="122.117" y1="58.4827" x2="127.271" y2="58.4827" gradientUnits="userSpaceOnUse">
<stop stop-color="#FFF33B"/>
<stop offset="0.04" stop-color="#FEE62D"/>
<stop offset="0.12" stop-color="#FDD51B"/>
<stop offset="0.2" stop-color="#FDCA0F"/>
<stop offset="0.28" stop-color="#FDC70C"/>
<stop offset="0.67" stop-color="#F3903F"/>
<stop offset="0.89" stop-color="#ED683C"/>
<stop offset="1" stop-color="#E93E3A"/>
</linearGradient>
<linearGradient id="paint1_linear_739_112" x1="168.695" y1="35.8457" x2="200.713" y2="35.8457" gradientUnits="userSpaceOnUse">
<stop stop-color="#FFF33B"/>
<stop offset="0.04" stop-color="#FEE62D"/>
<stop offset="0.12" stop-color="#FDD51B"/>
<stop offset="0.2" stop-color="#FDCA0F"/>
<stop offset="0.28" stop-color="#FDC70C"/>
<stop offset="0.67" stop-color="#F3903F"/>
<stop offset="0.89" stop-color="#ED683C"/>
<stop offset="1" stop-color="#E93E3A"/>
</linearGradient>
<linearGradient id="paint2_linear_739_112" x1="48.6953" y1="35.5247" x2="80.7131" y2="35.5247" gradientUnits="userSpaceOnUse">
<stop stop-color="#FFF33B"/>
<stop offset="0.04" stop-color="#FEE62D"/>
<stop offset="0.12" stop-color="#FDD51B"/>
<stop offset="0.2" stop-color="#FDCA0F"/>
<stop offset="0.28" stop-color="#FDC70C"/>
<stop offset="0.67" stop-color="#F3903F"/>
<stop offset="0.89" stop-color="#ED683C"/>
<stop offset="1" stop-color="#E93E3A"/>
</linearGradient>
<clipPath id="clip0_739_112">
<rect width="250" height="121.075" fill="white"/>
</clipPath>
</defs>
</svg>
