<!DOCTYPE svg PUBLIC "-//W3C//DTD SVG 1.1//EN" "http://www.w3.org/Graphics/SVG/1.1/DTD/svg11.dtd">
<!-- Uploaded to: SVG Repo, www.svgrepo.com, Transformed by: SVG Repo Mixer Tools -->
<svg width="256px" height="256px" viewBox="0 0 2050.00 2050.00" data-name="Layer 3" id="Layer_3" xmlns="http://www.w3.org/2000/svg" fill="#ED683C" stroke="#ED683C" stroke-width="14.35">
<g id="SVGRepo_bgCarrier" stroke-width="0"/>
<g id="SVGRepo_tracerCarrier" stroke-linecap="round" stroke-linejoin="round" stroke="#000" stroke-width="61.5">
<defs>
<style>.cls-1{fill:#ffffffED683C;}.cls-2{fill:#ffffff;}</style>
</defs>
<title/>
<path class="cls-1" d="M1009.1,1629.4a602.6,602.6,0,1,1,235.2-47.5A601,601,0,0,1,1009.1,1629.4Z"/>
<path class="cls-2" d="M803.5,1283a45.1,45.1,0,0,1-31.8-76.9L1202,775.8a45,45,0,0,1,63.6,63.7L835.3,1269.8A44.8,44.8,0,0,1,803.5,1283Z"/>
<path class="cls-2" d="M842.8,1000a45,45,0,0,1-26.9-8.9L699,904a45.1,45.1,0,0,1,0-72.2l116.9-87.1a45,45,0,0,1,53.8,72.2l-68.5,51,68.5,51a45,45,0,0,1-26.9,81.1Z"/>
<path class="cls-2" d="M1175.4,1314.2a45,45,0,0,1-26.9-81.1l68.4-51-68.4-51a45,45,0,1,1,53.7-72.2l117,87.1a45.1,45.1,0,0,1,0,72.2l-117,87.1A44.9,44.9,0,0,1,1175.4,1314.2Z"/>
</g>
<g id="SVGRepo_iconCarrier">
<defs>
<style>.cls-1{fill:#ffffffED683C;}.cls-2{fill:#ffffff;}</style>
</defs>
<title/>
<path class="cls-1" d="M1009.1,1629.4a602.6,602.6,0,1,1,235.2-47.5A601,601,0,0,1,1009.1,1629.4Z"/>
<path class="cls-2" d="M803.5,1283a45.1,45.1,0,0,1-31.8-76.9L1202,775.8a45,45,0,0,1,63.6,63.7L835.3,1269.8A44.8,44.8,0,0,1,803.5,1283Z"/>
<path class="cls-2" d="M842.8,1000a45,45,0,0,1-26.9-8.9L699,904a45.1,45.1,0,0,1,0-72.2l116.9-87.1a45,45,0,0,1,53.8,72.2l-68.5,51,68.5,51a45,45,0,0,1-26.9,81.1Z"/>
<path class="cls-2" d="M1175.4,1314.2a45,45,0,0,1-26.9-81.1l68.4-51-68.4-51a45,45,0,1,1,53.7-72.2l117,87.1a45.1,45.1,0,0,1,0,72.2l-117,87.1A44.9,44.9,0,0,1,1175.4,1314.2Z"/>
</g>
</svg>